<svg width="400" height="120" viewBox="0 0 400 120" fill="none" xmlns="http://www.w3.org/2000/svg">
  <defs>
    <linearGradient id="mainGrad" x1="10" y1="10" x2="90" y2="110" gradientUnits="userSpaceOnUse">
      <stop offset="0%" stop-color="#A855F7"/>
      <stop offset="40%" stop-color="#8B5CF6"/>
      <stop offset="100%" stop-color="#581C87"/>
    </linearGradient>
    <linearGradient id="swooshGrad" x1="0" y1="80" x2="100" y2="40" gradientUnits="userSpaceOnUse">
      <stop offset="0%" stop-color="#7C3AED"/>
      <stop offset="100%" stop-color="#C084FC"/>
    </linearGradient>
    <linearGradient id="darkGrad" x1="30" y1="110" x2="60" y2="30" gradientUnits="userSpaceOnUse">
      <stop offset="0%" stop-color="#4C1D95"/>
      <stop offset="100%" stop-color="#6D28D9"/>
    </linearGradient>
  </defs>

  <!-- "A" Letter Main Body -->
  <path d="M52 8 L22 95 C21 98 23 100 26 100 L36 100 C38 100 40 98 41 96 L47 76 L73 76 L79 96 C80 98 82 100 84 100 L94 100 C97 100 99 98 98 95 L68 8 C67 5 65 3 62 3 L58 3 C55 3 53 5 52 8 Z M51 62 L60 30 L69 62 L51 62 Z" fill="url(#mainGrad)"/>
  
  <!-- Swoosh/Wing Element - Curves from bottom-left to upper-right -->
  <path d="M5 95 C5 95 18 82 35 72 C52 62 72 56 85 50 C92 47 96 43 88 38 C80 33 68 36 55 42 C42 48 25 60 12 76 C6 84 5 95 5 95 Z" fill="url(#swooshGrad)" opacity="0.85"/>
  
  <!-- Shadow/depth on the A -->
  <path d="M52 8 L42 40 C48 38 54 36 60 35 L58 3 C55 3 53 5 52 8 Z" fill="url(#darkGrad)" opacity="0.4"/>
  
  <!-- "Adify" Text -->
  <text x="120" y="82" font-family="Inter, -apple-system, BlinkMacSystemFont, Segoe UI, Roboto, sans-serif" font-size="62" font-weight="800" fill="#0f172a" letter-spacing="-2">Adify</text>
</svg>
